<?xml version="1.0" encoding="utf-8"?>
<!-- Generator: Adobe Illustrator 23.0.4, SVG Export Plug-In . SVG Version: 6.00 Build 0)  -->
<svg version="1.1" id="圖層_1" xmlns="http://www.w3.org/2000/svg" xmlns:xlink="http://www.w3.org/1999/xlink" x="0px" y="0px"
	 viewBox="0 0 1234 320" style="enable-background:new 0 0 1234 320;" xml:space="preserve">
<style type="text/css">
	.st0{clip-path:url(#SVGID_2_);}
	.st1{clip-path:url(#SVGID_4_);}
	.st2{clip-path:url(#SVGID_6_);}
	.st3{clip-path:url(#SVGID_8_);}
	.st4{fill:#E6B924;}
</style>
<path d="M161.77,64.67L91.83,244.21h38.46l14.82-40.78h71.76l15.68,40.78h39.44L200.1,64.67H161.77z M156.25,173.18l24.25-66.62
	l24.74,66.62H156.25z"/>
<path d="M355.04,115.37c-4.38,2.78-9.29,8.54-14.76,17.27v-18.5h-31.97v130.07h34.41v-40.17c0-22.13,0.96-36.66,2.88-43.6
	c1.91-6.94,4.54-11.74,7.89-14.39c3.35-2.65,7.43-3.98,12.25-3.98c4.98,0,10.37,1.88,16.17,5.64l10.65-30.01
	c-7.27-4.32-14.82-6.49-22.65-6.49C364.36,111.21,359.4,112.6,355.04,115.37z"/>
<polygon points="454.57,159.95 454.57,64.67 420.15,64.67 420.15,244.21 454.57,244.21 454.57,202.57 "/>
<path d="M708.45,148.81c7.76-3.51,13.9-8.78,18.43-15.8s6.8-14.74,6.8-23.15c0-7.75-1.84-14.75-5.51-21
	c-3.67-6.25-8.26-11.25-13.78-15c-5.51-3.75-11.76-6.22-18.74-7.41c-6.98-1.18-17.57-1.77-31.78-1.77h-71.77v179.54h61.11
	c23.1-0.16,37.68-0.57,43.72-1.23c9.63-1.06,17.73-3.9,24.31-8.51c6.57-4.61,11.76-10.78,15.55-18.49c3.8-7.72,5.7-15.66,5.7-23.82
	c0-10.37-2.94-19.39-8.82-27.06C727.8,157.42,719.38,151.99,708.45,148.81z M699.94,205.7c-3.39,3.79-7.78,6.18-13.17,7.16
	c-3.51,0.73-11.8,1.1-24.86,1.1h-33.56v-48l0,0v-29.89l0,0V94.55h20.82c17.07,0,27.39,0.21,30.99,0.61
	c6.04,0.73,10.59,2.84,13.65,6.3c3.06,3.47,4.59,7.98,4.59,13.53c0,5.8-1.77,10.47-5.32,14.03c-3.55,3.55-8.43,5.69-14.63,6.43
	c-3.43,0.41,1.91,0.61-12.21,0.61h-14.12l-19.14,29.89h24.66c16.49,0,27.21,0.86,32.14,2.57c4.94,1.71,8.71,4.45,11.33,8.2
	c2.61,3.75,3.92,8.33,3.92,13.72C705.02,196.81,703.32,201.9,699.94,205.7z"/>
<path d="M879.85,130.37c-11.19-12.78-26.45-19.16-45.8-19.16c-17.23,0-31.48,6.1-42.74,18.31c-11.27,12.21-16.9,29.08-16.9,50.64
	c0,18.04,4.29,32.99,12.86,44.82c10.86,14.78,27.6,22.17,50.21,22.17c14.29,0,26.19-3.29,35.7-9.86c9.51-6.57,19.35-22.8,20.88-35.1
	l-34.29,0.62c-1.88,6.53-4.66,11.27-8.33,14.21c-3.67,2.94-8.2,4.41-13.6,4.41c-7.92,0-14.53-2.84-19.84-8.51
	c-5.31-5.67-8.09-13.61-8.33-23.82h86.22C896.38,162.72,891.03,143.15,879.85,130.37z M810.28,168.03
	c-0.08-9.39,2.33-16.81,7.23-22.28c4.9-5.47,11.1-8.21,18.61-8.21c7.02,0,12.99,2.59,17.89,7.78c4.9,5.18,7.46,12.76,7.72,22.71
	H810.28z"/>
<path d="M1026.92,130.37c-11.19-12.78-26.45-19.16-45.8-19.16c-17.23,0-31.48,6.1-42.74,18.31c-11.27,12.21-16.9,29.08-16.9,50.64
	c0,18.04,4.29,32.99,12.86,44.82c10.86,14.78,27.6,22.17,50.21,22.17c14.29,0,26.19-3.29,35.7-9.86
	c9.51-6.57,19.27-17.12,20.88-33.92l-34.29-0.56c-1.88,6.53-4.66,11.27-8.33,14.21c-3.67,2.94-8.2,4.41-13.6,4.41
	c-7.92,0-14.53-2.84-19.84-8.51c-5.31-5.67-8.09-13.61-8.33-23.82h86.22C1043.45,162.72,1038.1,143.15,1026.92,130.37z
	 M957.36,168.03c-0.08-9.39,2.33-16.81,7.23-22.28c4.9-5.47,11.1-8.21,18.61-8.21c7.02,0,12.99,2.59,17.89,7.78
	c4.9,5.18,7.46,12.76,7.72,22.71H957.36z"/>
<path d="M1127.73,213.96c-2.28,0-8.2,0.29-17.76,0.86l17.52-18.98l49.72-57.32v-24.38h-107.52v28.54l45.92-0.24
	c6.53-0.08,11.8-0.24,15.8-0.49c-3.83,3.84-9.76,10.33-17.76,19.48l-48.74,55.96v26.82H1181v-30.25H1127.73z"/>
<g>
	<defs>
		<polygon id="SVGID_1_" points="521.03,89.59 505.71,89.59 461.53,168.05 505.71,246.47 521.03,246.47 476.85,168.05 		"/>
	</defs>
	<use xlink:href="#SVGID_1_"  style="overflow:visible;"/>
	<clipPath id="SVGID_2_">
		<use xlink:href="#SVGID_1_"  style="overflow:visible;"/>
	</clipPath>
	<g class="st0">
		<defs>
			<rect id="SVGID_3_" x="-663.65" y="-884.12" width="7789.7" height="4868.56"/>
		</defs>
		<use xlink:href="#SVGID_3_"  style="overflow:visible;"/>
		<clipPath id="SVGID_4_">
			<use xlink:href="#SVGID_3_"  style="overflow:visible;"/>
		</clipPath>
		<g class="st1">
			<rect x="434.48" y="62.55" width="113.6" height="210.97"/>
		</g>
	</g>
</g>
<g>
	<defs>
		<polygon id="SVGID_5_" points="561.6,89.59 524.88,89.59 480.46,168.05 524.88,246.47 561.6,246.47 517.18,168.05 		"/>
	</defs>
	<clipPath id="SVGID_6_">
		<use xlink:href="#SVGID_5_"  style="overflow:visible;"/>
	</clipPath>
	<g class="st2">
		<defs>
			<rect id="SVGID_7_" x="-660.95" y="-884.12" width="7789.7" height="4868.56"/>
		</defs>
		<clipPath id="SVGID_8_">
			<use xlink:href="#SVGID_7_"  style="overflow:visible;"/>
		</clipPath>
		<g class="st3">
			<rect x="453.41" y="62.55" class="st4" width="135.24" height="210.97"/>
		</g>
	</g>
</g>
</svg>
