<?xml version="1.0" encoding="UTF-8"?>
<svg width="115px" height="115px" viewBox="0 0 115 115" version="1.1" xmlns="http://www.w3.org/2000/svg" xmlns:xlink="http://www.w3.org/1999/xlink">
    <!-- Generator: Sketch 55.1 (78136) - https://sketchapp.com -->
    <title>pencil</title>
    <desc>Created with Sketch.</desc>
    <g id="Symbols" stroke="none" stroke-width="1" fill="none" fill-rule="evenodd">
        <g id="pencil" fill="#9B9A9A" fill-rule="nonzero">
            <path d="M57.4984667,0 C25.743305,0 0,25.74505 0,57.49885 C0,89.25265 25.743305,115 57.4984667,115 C89.2536284,115 115,89.2541833 115,57.49885 C115,25.7435167 89.2536284,0 57.4984667,0 Z M84.8326156,41.3789167 L79.3712291,46.8402667 L68.254105,35.7239833 L64.0366436,39.9414167 L75.1537677,51.0584667 L47.8863192,78.3234333 L36.7699618,67.2083 L32.5525004,71.4257333 L43.6688578,82.5420167 L40.951773,85.2590833 L40.9000227,85.2073333 C40.5987207,85.7033667 40.1088174,86.0652333 39.5269135,86.1944167 L29.1603611,88.5059167 C29.00511,88.5408 28.8471756,88.5576667 28.6911579,88.5576667 C28.1253542,88.5576667 27.5756505,88.33495 27.1681645,87.9263167 C26.6452943,87.4053667 26.4275595,86.6528833 26.5885606,85.9318333 L28.898926,75.5684167 C29.0292602,74.9869 29.3918959,74.49585 29.8871659,74.1953167 L29.8346489,74.1428 L73.7151081,30.2607167 C74.3583457,29.6186333 75.4033194,29.6186333 76.046557,30.2626333 L84.8333822,39.0474833 C85.4766198,39.6907167 85.4766198,40.7356833 84.8326156,41.3789167 Z" id="Shape"></path>
        </g>
    </g>
</svg>