<?xml version="1.0" encoding="utf-8"?>
<!-- Generator: Adobe Illustrator 23.0.4, SVG Export Plug-In . SVG Version: 6.00 Build 0)  -->
<svg version="1.1" id="Layer_1" xmlns="http://www.w3.org/2000/svg" xmlns:xlink="http://www.w3.org/1999/xlink" x="0px" y="0px"
	 viewBox="0 0 473.9 473.9" style="enable-background:new 0 0 473.9 473.9;" xml:space="preserve">
<style type="text/css">
	.st0{fill:#F90047;}
	.st1{fill:#FFFFFF;}
</style>
<circle class="st0" cx="237" cy="237" r="237"/>
<path class="st1" d="M214.4,252.4l-6.7-100.2c-1.3-19.5-1.9-33.5-1.9-42c0-11.6,3-20.6,9.1-27.1c6.1-6.5,14.1-9.7,23.9-9.7
	c12,0,20,4.2,24.1,12.4c4,8.3,6.1,20.3,6.1,35.9c0,9.2-0.5,18.6-1.5,28l-9,103.1c-1,12.3-3.1,21.7-6.3,28.2
	c-3.2,6.5-8.5,9.8-15.9,9.8c-7.5,0-12.8-3.2-15.7-9.5C217.7,275,215.6,265.4,214.4,252.4z M237.6,390c-8.5,0-15.9-2.7-22.3-8.3
	c-6.3-5.5-9.5-13.2-9.5-23.1c0-8.6,3-16,9.1-22.1c6.1-6.1,13.5-9.1,22.3-9.1c8.8,0,16.3,3,22.5,9.1c6.2,6.1,9.3,13.4,9.3,22.1
	c0,9.8-3.1,17.4-9.4,23C253.3,387.2,246,390,237.6,390z"/>
</svg>
