<?xml version="1.0" encoding="UTF-8"?>
<svg width="48px" height="48px" viewBox="0 0 48 48" version="1.1" xmlns="http://www.w3.org/2000/svg" xmlns:xlink="http://www.w3.org/1999/xlink">
    <!-- Generator: Sketch 55.1 (78136) - https://sketchapp.com -->
    <title>angry</title>
    <desc>Created with Sketch.</desc>
    <defs>
        <linearGradient x1="50%" y1="0%" x2="50%" y2="100%" id="linearGradient-1">
            <stop stop-color="#F65366" offset="0%"></stop>
            <stop stop-color="#F87168" offset="20.0672743%"></stop>
            <stop stop-color="#FB9568" offset="40.9695095%"></stop>
            <stop stop-color="#FEC96A" offset="70.8034939%"></stop>
            <stop stop-color="#FFDB6B" offset="100%"></stop>
        </linearGradient>
    </defs>
    <g id="Symbols" stroke="none" stroke-width="1" fill="none" fill-rule="evenodd">
        <g id="angry">
            <g id="emoji">
                <circle id="body" fill="url(#linearGradient-1)" cx="24" cy="24" r="24"></circle>
                <path d="M36.5303114,28.4310922 C36.7020957,28.7769849 36.8,29.1756299 36.8,29.6 C36.8,30.9254834 35.8448741,32 34.6666667,32 C33.4884592,32 32.5333333,30.9254834 32.5333333,29.6 C32.5333333,29.4712496 32.5423451,29.3448671 32.5596977,29.2216073 C31.041987,29.3907553 29.412494,29.4339513 27.6706965,29.3314927 C27.0826093,29.2968993 26.633914,28.792117 26.6685073,28.2040298 C26.7031007,27.6159427 27.207883,27.1672473 27.7959702,27.2018407 C31.8203678,27.4385699 35.1468211,26.8421939 37.8076078,25.7110902 C38.5868464,25.3798349 39.2449517,25.0276379 39.783687,24.6791746 C40.0929191,24.479158 40.2859715,24.3324222 40.3642618,24.2639182 C40.8076075,23.8759907 41.4814876,23.920916 41.8694151,24.3642618 C42.2573427,24.8076075 42.2124173,25.4814876 41.7690716,25.8694151 C41.6150656,26.0041704 41.3401377,26.2131383 40.942318,26.470455 C40.3026335,26.884214 39.5364721,27.2942392 38.6422095,27.6743913 C37.9737081,27.958572 37.2697734,28.2119902 36.5303114,28.4310922 Z M15.9807322,29.276056 C15.9934385,29.3820006 16,29.4901382 16,29.6 C16,30.9254834 15.0448741,32 13.8666667,32 C12.6884592,32 11.7333333,30.9254834 11.7333333,29.6 C11.7333333,29.2293253 11.8080294,28.8782775 11.9414116,28.5648681 C11.0281714,28.3173225 10.1670201,28.0183958 9.35779052,27.6743913 C8.46352789,27.2942392 7.69736653,26.884214 7.05768202,26.470455 C6.65986233,26.2131383 6.38493442,26.0041704 6.23092842,25.8694151 C5.78758268,25.4814876 5.74265734,24.8076075 6.13058486,24.3642618 C6.51851238,23.920916 7.19239251,23.8759907 7.63573825,24.2639182 C7.71402854,24.3324222 7.90708088,24.479158 8.21631304,24.6791746 C8.75504829,25.0276379 9.41315359,25.3798349 10.1923922,25.7110902 C12.8531789,26.8421939 16.1796322,27.4385699 20.2040298,27.2018407 C20.792117,27.1672473 21.2968993,27.6159427 21.3314927,28.2040298 C21.366086,28.792117 20.9173907,29.2968993 20.3293035,29.3314927 C18.7924703,29.4218946 17.3430662,29.3989045 15.9807322,29.276056 Z M23.9999998,39.4666667 C19.8762737,39.4666667 17.0666667,39.4666667 16.5333333,38.4 C16,37.3333333 19.8762737,36.8 23.9999998,36.8 C28.1237259,36.8 32,37.3333333 31.4666667,38.4 C30.9333333,39.4666667 28.1237259,39.4666667 23.9999998,39.4666667 Z" id="expression" fill="#000000" fill-rule="nonzero"></path>
            </g>
        </g>
    </g>
</svg>