<?xml version="1.0" encoding="UTF-8"?>
<svg width="71px" height="66px" viewBox="0 0 71 66" version="1.1" xmlns="http://www.w3.org/2000/svg" xmlns:xlink="http://www.w3.org/1999/xlink">
    <!-- Generator: Sketch 56 (81588) - https://sketch.com -->
    <title>gift-box</title>
    <desc>Created with Sketch.</desc>
    <g id="Symbols" stroke="none" stroke-width="1" fill="none" fill-rule="evenodd">
        <g id="gift-box" fill-rule="nonzero">
            <path d="M32.7757432,11.6085027 C32.3632391,11.0937331 22.5853466,-0.985061698 14.8663603,0.0646189472 C12.1294013,0.437028815 10.0215563,2.33278412 8.60163547,5.69913366 C6.64269244,10.3432957 6.47988745,14.1183644 8.11780852,16.9192483 C10.1569723,20.4063091 14.1988738,20.9688973 14.3698816,20.991231 C14.4150665,20.9971227 14.4606686,21 14.5062707,21 L31.9572693,21 C32.5331346,21 33,20.5398998 33,19.972379 L33,12.2453538 C33,12.0143445 32.9210304,11.7899121 32.7757432,11.6085027 Z" id="Path" fill="#FF3D43"></path>
            <path d="M62.3982675,5.69915605 C60.9783522,2.33281145 58.8706547,0.437058913 56.1337065,0.0646495902 C48.4162802,-0.985303551 38.6367582,11.0938846 38.2243947,11.6085165 C38.0791082,11.7899256 38,12.0143577 38,12.2453666 L38,19.9723805 C38,20.5399005 38.4668633,21 39.0427264,21 L56.4936557,21 C56.5392576,21 56.5848595,20.9971227 56.6300443,20.991231 C56.8010514,20.9688974 60.8429368,20.4063099 62.8820925,16.9192543 C64.5201461,14.1182374 64.3573417,10.3433113 62.3982675,5.69915605 Z" id="Path" fill="#FF3D43"></path>
            <path d="M31.9572316,17.8395782 L14.5055995,17.8395782 C14.4599958,17.8395782 14.414392,17.8364371 14.3692054,17.8300052 C14.1981914,17.8056241 10.1561432,17.1916087 8.1169054,13.3847132 C7.72371221,12.6507367 7.43549103,11.8548351 7.24973923,11 C6.73155288,13.9692618 7.01935694,16.4963727 8.1169054,18.545135 C10.1561432,22.3518809 14.1981914,22.9660459 14.3692054,22.990427 C14.414392,22.9968589 14.4599958,23 14.5055995,23 L31.9572316,23 C32.5331178,23 33,22.4977189 33,21.8781692 L33,16.7177474 C33,17.3372971 32.5331178,17.8395782 31.9572316,17.8395782 Z" id="Path" fill="#D62D2D"></path>
            <path d="M62.8830946,13.3847132 C60.8438568,17.1914591 56.8018086,17.8056241 56.6307946,17.8300052 C56.585608,17.8364371 56.5400042,17.8395782 56.4944005,17.8395782 L39.0427684,17.8395782 C38.4668822,17.8395782 38,17.3372971 38,16.7177474 L38,21.8781692 C38,22.4977189 38.4668822,23 39.0427684,23 L56.4944005,23 C56.5400042,23 56.585608,22.9968589 56.6307946,22.990427 C56.8018086,22.9660459 60.8438568,22.3518809 62.8830946,18.545135 C63.9806431,16.4962232 64.2684471,13.9692618 63.7502608,11 C63.564648,11.8548351 63.2762878,12.6507367 62.8830946,13.3847132 Z" id="Path" fill="#D62D2D"></path>
            <path d="M40.0545556,12 L32.9454444,12 C32.423307,12 32,12.423307 32,12.9454444 L32,20.0545556 C32,20.576693 32.423307,21 32.9454444,21 L40.0545556,21 C40.576693,21 41,20.576693 41,20.0545556 L41,12.9454444 C41,12.423307 40.576693,12 40.0545556,12 Z" id="Path" fill="#D62D2D"></path>
            <path d="M32,17 L32,20.9130435 C32,21.5133333 32.423307,22 32.9454444,22 L40.0545556,22 C40.576693,22 41,21.5133333 41,20.9130435 L41,17 L32,17 Z" id="Path" fill="#9E1219"></path>
            <path d="M64.9661352,29 L7.03386482,29 C6.46289574,29 6,29.480343 6,30.0728328 L6,61.3377548 C6,63.9085483 8.015485,66 10.4929008,66 L61.5070992,66 C63.984515,66 66,63.9085483 66,61.3377548 L66,30.0728328 C66,29.4802 65.5371043,29 64.9661352,29 Z" id="Path" fill="#FFD039"></path>
            <path d="M64.9661352,29 L7.03386482,29 C6.46289574,29 6,29.4226664 6,29.9440137 L6,34 L66,34 L66,29.9440137 C66,29.4225405 65.5371043,29 64.9661352,29 Z" id="Path" fill="#F4B70C"></path>
            <path d="M69.9580072,19 L1.0419928,19 C0.466534909,19 0,19.4900319 0,20.0944726 L0,30.9055274 C0,31.5099681 0.466534909,32 1.0419928,32 L69.9580072,32 C70.5334651,32 71,31.5099681 71,30.9055274 L71,20.0944726 C71,19.4900319 70.5334651,19 69.9580072,19 Z" id="Path" fill="#FFDF65"></path>
            <path d="M0,27 L0,30.9130435 C0,31.5133333 0.466534909,32 1.0419928,32 L69.9580072,32 C70.5334651,32 71,31.5133333 71,30.9130435 L71,27 L0,27 Z" id="Path" fill="#FFCD2C"></path>
            <path d="M40.9065461,20 L30.0934539,20 C29.4895757,20 29,20.4642234 29,21.03683 L29,64.96317 C29,65.5357766 29.4895757,66 30.0934539,66 L40.9065461,66 C41.5104243,66 42,65.5357766 42,64.96317 L42,21.03683 C42,20.4642234 41.5105701,20 40.9065461,20 Z" id="Path" fill="#FF3D43"></path>
            <path d="M40.9130435,20 L37,20 L37,66 L40.9130435,66 C41.5133333,66 42,65.5357766 42,64.96317 L42,21.03683 C42,20.4642234 41.5134783,20 40.9130435,20 Z" id="Path" fill="#D62D2D"></path>
        </g>
    </g>
</svg>