<?xml version="1.0" encoding="UTF-8"?>
<svg width="54px" height="48px" viewBox="0 0 54 48" version="1.1" xmlns="http://www.w3.org/2000/svg" xmlns:xlink="http://www.w3.org/1999/xlink">
    <!-- Generator: Sketch 56 (81588) - https://sketch.com -->
    <title>Group 5</title>
    <desc>Created with Sketch.</desc>
    <g id="Symbols" stroke="none" stroke-width="1" fill="none" fill-rule="evenodd">
        <g id="Group-5" fill="#030104" fill-rule="nonzero">
            <g id="shopping-cart">
                <path d="M53.315448,6.49384615 C52.7796567,5.88738462 52.0082293,5.53846154 51.1947241,5.53846154 L12.4297985,5.53846154 L11.8827864,2.31507692 C11.6583711,0.980307692 10.4886068,0 9.11686868,0 L2.80519036,0 C1.25392009,0 0,1.23784615 0,2.76923077 C0,4.30061538 1.25392009,5.53846154 2.80519036,5.53846154 L6.74087244,5.53846154 L11.9585265,36.4541538 C11.980968,36.5787692 12.0454874,36.6812308 12.0847601,36.7975385 C12.1296431,36.9443077 12.1661106,37.0827692 12.2362404,37.2156923 C12.3260065,37.3984615 12.4466296,37.5535385 12.5728632,37.7113846 C12.6598241,37.8193846 12.7383694,37.9273846 12.8393563,38.0215385 C13.0020573,38.1710769 13.1900051,38.2763077 13.380758,38.3815385 C13.4873553,38.4396923 13.5799265,38.5172308 13.6949393,38.5615385 C14.0203414,38.6916923 14.3625747,38.7692308 14.7244442,38.7692308 C14.7272494,38.7692308 45.5843434,38.7692308 45.5843434,38.7692308 C47.1356137,38.7692308 48.3895338,37.5313846 48.3895338,36 C48.3895338,34.4686154 47.1356137,33.2307692 45.5843434,33.2307692 L17.1032456,33.2307692 L16.637584,30.4615385 L48.3895338,30.4615385 C49.7865186,30.4615385 50.9703089,29.448 51.1666722,28.0855385 L53.9718626,8.70092308 C54.0868754,7.90338462 53.845629,7.09753846 53.315448,6.49384615 Z M47.9603396,11.0769231 L47.1608604,16.6153846 L37.1687723,16.6153846 L37.1687723,11.0769231 L47.9603396,11.0769231 Z M34.3635819,11.0769231 L34.3635819,16.6153846 L25.9480109,16.6153846 L25.9480109,11.0769231 L34.3635819,11.0769231 Z M34.3635819,19.3846154 L34.3635819,24.9230769 L25.9480109,24.9230769 L25.9480109,19.3846154 L34.3635819,19.3846154 Z M23.1428205,11.0769231 L23.1428205,16.6153846 L14.7272494,16.6153846 C14.5785743,16.6153846 14.4439252,16.6569231 14.3120812,16.6984615 L13.3639269,11.0769231 L23.1428205,11.0769231 Z M14.7665221,19.3846154 L23.1428205,19.3846154 L23.1428205,24.9230769 L15.7006505,24.9230769 L14.7665221,19.3846154 Z M37.1687723,24.9230769 L37.1687723,19.3846154 L46.756913,19.3846154 L45.9574337,24.9230769 L37.1687723,24.9230769 Z" id="Shape"></path>
                <ellipse id="Oval" cx="19.2857143" cy="44.3076923" rx="3.85714286" ry="3.69230769"></ellipse>
                <ellipse id="Oval" cx="44.3571429" cy="44.3076923" rx="3.85714286" ry="3.69230769"></ellipse>
            </g>
        </g>
    </g>
</svg>