<?xml version="1.0" encoding="UTF-8"?>
<svg width="48px" height="48px" viewBox="0 0 48 48" version="1.1" xmlns="http://www.w3.org/2000/svg" xmlns:xlink="http://www.w3.org/1999/xlink">
    <!-- Generator: Sketch 55.1 (78136) - https://sketchapp.com -->
    <title>haha</title>
    <desc>Created with Sketch.</desc>
    <defs>
        <path d="M-7.10542736e-15,0 L33.3949326,0 C32.4663699,8.39990752 25.3448998,14.9333333 16.6974663,14.9333333 C8.0500328,14.9333333 0.928562672,8.39990752 -1.33226763e-14,-1.66533454e-15 Z" id="path-1"></path>
    </defs>
    <g id="Symbols" stroke="none" stroke-width="1" fill="none" fill-rule="evenodd">
        <g id="haha">
            <g id="emoji">
                <circle id="body" fill="#FFDA6A" cx="24" cy="24" r="24"></circle>
                <g id="expression" transform="translate(7.466667, 12.266667)">
                    <path d="M2.18987249,2.020956 C1.66296209,1.7575008 1.44938946,1.11678289 1.71284466,0.589872492 C1.97629986,0.0629620945 2.61701776,-0.150610542 3.14392816,0.112844657 L9.01059483,3.04617799 C9.79677994,3.43927054 9.79677994,4.56119678 9.01059483,4.95428933 L3.14392816,7.88762266 C2.61701776,8.15107786 1.97629986,7.93750523 1.71284466,7.41059483 C1.44938946,6.88368443 1.66296209,6.24296652 2.18987249,5.97951132 L8.05653916,3.04617799 L8.05653916,4.95428933 L2.18987249,2.020956 Z M30.4565392,0.112844657 C30.9834496,-0.150610542 31.6241675,0.0629620945 31.8876227,0.589872492 C32.1510779,1.11678289 31.9375052,1.7575008 31.4105948,2.020956 L25.5439282,4.95428933 L25.5439282,3.04617799 L31.4105948,5.97951132 C31.9375052,6.24296652 32.1510779,6.88368443 31.8876227,7.41059483 C31.6241675,7.93750523 30.9834496,8.15107786 30.4565392,7.88762266 L24.5898725,4.95428933 C23.8036874,4.56119678 23.8036874,3.43927054 24.5898725,3.04617799 L30.4565392,0.112844657 Z" id="eyes" fill="#000000" fill-rule="nonzero"></path>
                    <g id="mouth" transform="translate(0.000000, 12.266667)">
                        <mask id="mask-2" fill="white">
                            <use xlink:href="#path-1"></use>
                        </mask>
                        <use id="Mask" fill="#000000" xlink:href="#path-1"></use>
                        <ellipse id="Oval-12" fill="#F55065" mask="url(#mask-2)" cx="16.8" cy="14.6666667" rx="20.5333333" ry="10.4"></ellipse>
                    </g>
                </g>
            </g>
        </g>
    </g>
</svg>