<?xml version="1.0" encoding="UTF-8"?>
<svg width="48px" height="48px" viewBox="0 0 48 48" version="1.1" xmlns="http://www.w3.org/2000/svg" xmlns:xlink="http://www.w3.org/1999/xlink">
    <!-- Generator: Sketch 55.1 (78136) - https://sketchapp.com -->
    <title>like</title>
    <desc>Created with Sketch.</desc>
    <g id="Symbols" stroke="none" stroke-width="1" fill="none" fill-rule="evenodd">
        <g id="like">
            <g id="thumbs">
                <circle id="body" fill="#558DFF" cx="24" cy="24" r="24"></circle>
                <path d="M10.6666667,21.3267861 C10.6666667,20.7387358 11.1416988,20.261976 11.7314364,20.261976 L16.5133191,20.261976 C17.101339,20.261976 17.5780351,20.7385216 17.5780351,21.3267861 L17.5780351,33.5196162 C17.5780351,34.1077199 17.103003,34.5844798 16.5133191,34.5844798 L11.7314364,34.5844798 C11.1433627,34.5844798 10.6666667,34.1079342 10.6666667,33.5196162 L10.6666667,21.3267861 L10.6666667,21.3267861 Z M27.5356208,9.6923894 C26.76521,8.80843961 25.3502047,8.86451325 24.6980956,9.8385986 C24.5701859,10.0296346 24.4894572,10.6097049 24.4894572,10.8233417 L24.4894572,12.3050354 C24.4894572,14.3249718 20.4850707,17.6400647 19.5372071,19.8003727 C19.2660363,20.4184145 19.2206264,21.0890488 19.1800474,21.8514789 L19.1730158,21.8533534 L19.1730158,31.9270605 C19.1730158,32.2227994 19.4133231,32.4626254 19.7097753,32.4626254 L32.9585553,32.4626254 C33.847751,32.4626254 34.6024348,31.7366672 34.5905724,30.8495576 C34.5836483,30.332684 34.329761,29.8753116 33.9413082,29.5895342 C34.6412962,29.2422739 35.12234,28.5214036 35.12234,27.6884396 C35.12234,26.9832078 34.7775258,26.3583643 34.246939,25.9725434 C35.0673222,25.6782505 35.6540003,24.895094 35.6540003,23.9752078 C35.6540003,23.1763593 35.2114958,22.4805534 34.5577228,22.1186187 C35.2066113,21.7593618 35.6473445,21.0712681 35.6538929,20.2799174 C35.663662,19.1030137 34.6692077,18.1401216 33.4896788,18.1401216 L27.7693796,18.1401216 C28.2865473,16.367402 28.5057599,14.8282957 28.6424725,13.7804095 C28.8499837,12.1889785 28.1172534,10.3598103 27.5356208,9.6923894 L27.5356208,9.6923894 Z" fill="#FFFFFF"></path>
            </g>
        </g>
    </g>
</svg>