<?xml version="1.0" encoding="UTF-8"?>
<svg width="48px" height="48px" viewBox="0 0 48 48" version="1.1" xmlns="http://www.w3.org/2000/svg" xmlns:xlink="http://www.w3.org/1999/xlink">
    <!-- Generator: Sketch 55.1 (78136) - https://sketchapp.com -->
    <title>sad</title>
    <desc>Created with Sketch.</desc>
    <g id="Symbols" stroke="none" stroke-width="1" fill="none" fill-rule="evenodd">
        <g id="sad">
            <g id="emojii">
                <circle id="body" fill="#FFDA6A" cx="24" cy="24" r="24"></circle>
                <g id="expression" transform="translate(8.000000, 16.533333)">
                    <path d="M5.6,12.2666667 C3.97996473,12.2666667 2.66666667,10.8339779 2.66666667,9.06666667 C2.66666667,7.29935547 3.97996473,5.86666667 5.6,5.86666667 C7.22003527,5.86666667 8.53333333,7.29935547 8.53333333,9.06666667 C8.53333333,10.8339779 7.22003527,12.2666667 5.6,12.2666667 Z M26.4,12.2666667 C24.7799647,12.2666667 23.4666667,10.8339779 23.4666667,9.06666667 C23.4666667,7.29935547 24.7799647,5.86666667 26.4,5.86666667 C28.0200353,5.86666667 29.3333333,7.29935547 29.3333333,9.06666667 C29.3333333,10.8339779 28.0200353,12.2666667 26.4,12.2666667 Z M23.3184764,21.2443281 C23.6188531,21.7510993 23.4515373,22.4054219 22.9447661,22.7057986 C22.4379949,23.0061753 21.7836722,22.8388595 21.4832955,22.3320883 C20.3364813,20.3972764 18.2779123,19.2 16,19.2 C13.7096606,19.2 11.6204116,20.4137945 10.4735619,22.3349532 C10.171603,22.8407832 9.51676067,23.0060534 9.01093064,22.7040945 C8.50510061,22.4021356 8.33983042,21.7472933 8.64178934,21.2414632 C10.1695365,18.6822397 12.9503484,17.0666667 16,17.0666667 C19.0386963,17.0666667 21.7911171,18.6674916 23.3184764,21.2443281 Z M2.55405566,4.74369442 C2.29060046,5.27060482 1.64988255,5.48417745 1.12297215,5.22072224 C0.59606176,4.95726704 0.38248913,4.31654912 0.645944335,3.78963873 C0.869079241,3.34336893 1.29317684,2.73078353 1.94910585,2.12170661 C3.2780221,0.887712979 5.00351504,0.246815626 7.08418278,0.544053873 C7.66736572,0.627365722 8.07259131,1.1676665 7.98927946,1.75084945 C7.90596761,2.33403239 7.36566683,2.73925798 6.78248389,2.65594613 C5.38386168,2.45614296 4.28429013,2.86455523 3.40073484,3.68499941 C3.13950294,3.92757188 2.9185551,4.18869205 2.73918069,4.44778841 C2.63678075,4.59569943 2.57510581,4.70159414 2.55405566,4.74369442 Z M31.3540557,3.78963873 C31.6175109,4.31654912 31.4039382,4.95726704 30.8770278,5.22072224 C30.3501175,5.48417745 29.7093995,5.27060482 29.4459443,4.74369442 C29.4248942,4.70159414 29.3632193,4.59569943 29.2608193,4.44778841 C29.0814449,4.18869205 28.8604971,3.92757188 28.5992652,3.68499941 C27.7157099,2.86455523 26.6161383,2.45614296 25.2175161,2.65594613 C24.6343332,2.73925798 24.0940324,2.33403239 24.0107205,1.75084945 C23.9274087,1.1676665 24.3326343,0.627365722 24.9158172,0.544053873 C26.996485,0.246815626 28.7219779,0.887712979 30.0508942,2.12170661 C30.7068232,2.73078353 31.1309208,3.34336893 31.3540557,3.78963873 Z" fill="#000000"></path>
                    <path d="M29.7421687,31.1382294 C31.7352734,31.1382294 33.351004,29.5169425 33.351004,27.5169838 C33.351004,25.6 29.7421687,18.1333333 29.7421687,18.1333333 C29.7421687,18.1333333 26.1333333,25.6 26.1333333,27.5169838 C26.1333333,29.5169425 27.749064,31.1382294 29.7421687,31.1382294 Z" id="tear" fill="#558DFF"></path>
                </g>
            </g>
        </g>
    </g>
</svg>