<?xml version="1.0" encoding="UTF-8"?>
<svg width="65px" height="59px" viewBox="0 0 65 59" version="1.1" xmlns="http://www.w3.org/2000/svg" xmlns:xlink="http://www.w3.org/1999/xlink">
    <!-- Generator: Sketch 56 (81588) - https://sketch.com -->
    <title>share-option</title>
    <desc>Created with Sketch.</desc>
    <g id="Symbols" stroke="none" stroke-width="1" fill="none" fill-rule="evenodd">
        <g id="share-option" transform="translate(1.000000, 1.000000)" fill="#FFFFFF" fill-rule="nonzero" stroke="#000000">
            <path d="M62.3324766,18.9168976 L44.3322479,0.67704735 C43.8868629,0.225724043 43.3597152,0 42.7503122,0 C42.1409093,0 41.6133922,0.225724043 41.1683766,0.67704735 C40.7229916,1.12862021 40.5,1.66304591 40.5,2.2804492 L40.5,11.4003743 L32.6250374,11.4003743 C15.913433,11.4003743 5.66009612,16.1861233 1.86268707,25.7573718 C0.620854646,28.9394694 0,32.8943193 0,37.620549 C0,41.5627963 1.48835187,46.9182833 4.46480932,53.6872595 C4.53499718,53.8538386 4.65764121,54.1382084 4.83372652,54.5418664 C5.0096887,54.9452748 5.16767293,55.301517 5.30829491,55.610593 C5.44940943,55.9189203 5.60185252,56.1802062 5.76574731,56.393702 C6.04674499,56.7976095 6.37502712,57 6.75010115,57 C7.10165609,57 7.37711262,56.8813358 7.57647075,56.6438826 C7.77533633,56.4065541 7.87495382,56.1093321 7.87495382,55.7539634 C7.87495382,55.5395941 7.84564732,55.2254022 7.78691117,54.809516 C7.72829815,54.3936297 7.69886851,54.1152492 7.69886851,53.9725028 C7.58151935,52.3581204 7.52290634,50.896342 7.52290634,49.5910357 C7.52290634,47.1924214 7.72829815,45.0429894 8.1380967,43.1431142 C8.54851093,41.2428646 9.11678625,39.5985355 9.84353836,38.2090037 C10.5701673,36.8189729 11.5073599,35.6204768 12.656101,34.6110199 C13.8043497,33.601563 15.0405178,32.7765285 16.3647286,32.1351678 C17.6891857,31.4936823 19.2477254,30.9889538 21.0407172,30.6209825 C22.8335858,30.2528863 24.6381524,29.997465 26.4547864,29.8548434 C28.2714204,29.7122217 30.3280476,29.6413476 32.6250374,29.6413476 L40.5,29.6413476 L40.5,38.7615223 C40.5,39.3789256 40.722499,39.9134761 41.1675146,40.3645498 C41.613269,40.815374 42.1404167,41.0413476 42.7494503,41.0413476 C43.3587301,41.0413476 43.8862472,40.815374 44.3322479,40.3645498 L62.3321072,22.1240757 C62.7774922,21.6727523 63,21.1385762 63,20.5210481 C63,19.9036448 62.7774922,19.3690944 62.3324766,18.9168976 Z" id="Path"></path>
        </g>
    </g>
</svg>