<?xml version="1.0" encoding="UTF-8"?>
<svg width="56px" height="59px" viewBox="0 0 56 59" version="1.1" xmlns="http://www.w3.org/2000/svg" xmlns:xlink="http://www.w3.org/1999/xlink">
    <!-- Generator: Sketch 56 (81588) - https://sketch.com -->
    <title>thumbs</title>
    <desc>Created with Sketch.</desc>
    <g id="Symbols" stroke="none" stroke-width="1" fill="none" fill-rule="evenodd">
        <path d="M1,30.2303573 C1,28.9986239 2.03097988,28 3.31090936,28 L13.6892071,28 C14.9654088,28 16,28.9981752 16,30.2303573 L16,55.7695305 C16,57.0013761 14.9690201,58 13.6892071,58 L3.31090936,58 C2.03459122,58 1,57.0018248 1,55.7695305 L1,30.2303573 L1,30.2303573 Z M37.2667353,2.36399024 C35.5838995,0.43710022 32.4930532,0.55933311 31.0686282,2.68270637 C30.7892303,3.09913877 30.6128919,4.36361291 30.6128919,4.82931205 L30.6128919,8.05920234 C30.6128919,12.4623883 21.865968,19.6888388 19.795516,24.3980155 C19.2031878,25.7452625 19.1039974,27.2071538 19.0153593,28.8691476 L19,28.8732337 L19,50.8325416 C19,51.4772121 19.5249116,52 20.1724628,52 L49.1122438,52 C51.0545456,52 52.7030282,50.4175102 52.6771168,48.4837322 C52.661992,47.3570181 52.1074171,46.3600087 51.2589058,45.7370529 C52.7879145,44.9800729 53.8386756,43.4086739 53.8386756,41.592926 C53.8386756,40.0556168 53.0854856,38.6935431 51.9265061,37.8525061 C53.7184982,37.2109878 55,35.5038134 55,33.4985869 C55,31.757206 54.0334217,30.2404442 52.6053621,29.4514758 C54.0227523,28.6683447 54.9854615,27.1683942 54.9997655,25.4433578 C55.0211043,22.877868 52.8488826,20.7788946 50.2723957,20.7788946 L37.7773428,20.7788946 C38.9070107,16.9146075 39.3858445,13.5595656 39.6844707,11.2753166 C40.1377448,7.80621412 38.5372159,3.81887684 37.2667353,2.36399024 L37.2667353,2.36399024 Z" id="thumbs" stroke="#000000" fill="#FFFFFF"></path>
    </g>
</svg>