<?xml version="1.0" encoding="UTF-8"?>
<svg width="48px" height="48px" viewBox="0 0 48 48" version="1.1" xmlns="http://www.w3.org/2000/svg" xmlns:xlink="http://www.w3.org/1999/xlink">
    <!-- Generator: Sketch 55.1 (78136) - https://sketchapp.com -->
    <title>wow</title>
    <desc>Created with Sketch.</desc>
    <g id="Symbols" stroke="none" stroke-width="1" fill="none" fill-rule="evenodd">
        <g id="wow">
            <g id="emojii">
                <circle id="body" fill="#FFDA6A" cx="24" cy="24" r="24"></circle>
                <path d="M24,43.2 C20.1708257,43.2 17.0666667,38.9019336 17.0666667,33.6 C17.0666667,28.2980664 20.1708257,24 24,24 C27.8291743,24 30.9333333,28.2980664 30.9333333,33.6 C30.9333333,38.9019336 27.8291743,43.2 24,43.2 Z M12.2832539,23.1885708 C10.4182663,22.8594345 9.28372402,20.4507992 9.74918285,17.8087334 C10.2146417,15.1666676 12.1038418,13.2916678 13.9688294,13.6208042 C15.8338171,13.9499405 16.9683593,16.3585758 16.5029005,19.0006416 C16.0374417,21.6427074 14.1482415,23.5177072 12.2832539,23.1885708 Z M35.9227663,23.1885708 C34.0577786,23.5177072 32.1685785,21.6427074 31.7031197,19.0006416 C31.2376609,16.3585758 32.3722031,13.9499405 34.2371907,13.6208042 C36.1021784,13.2916678 37.9913785,15.1666676 38.4568373,17.8087334 C38.9222962,20.4507992 37.7877539,22.8594345 35.9227663,23.1885708 Z M10.8174034,8.19179555 C10.5413957,8.5368051 10.0379618,8.59274221 9.6929523,8.31673457 C9.34794275,8.04072693 9.29200565,7.53729303 9.56801328,7.19228348 C9.77479839,6.9338021 10.1421226,6.58095375 10.6700368,6.2343434 C12.2293434,5.21055625 14.1695155,4.945059 16.3745104,5.89005683 C16.7806143,6.06410133 16.9687355,6.53440447 16.794691,6.9405083 C16.6206465,7.34661212 16.1503434,7.53473337 15.7442396,7.36068887 C14.061266,6.63941448 12.6805461,6.82835511 11.5481822,7.57182636 C11.3283634,7.71615183 11.1382209,7.87025734 10.9798046,8.02243064 C10.8905999,8.10811991 10.8358934,8.16868299 10.8174034,8.19179555 Z M38.6380069,7.19228348 C38.9140145,7.53729303 38.8580774,8.04072693 38.5130679,8.31673457 C38.1680583,8.59274221 37.6646244,8.5368051 37.3886168,8.19179555 C37.3701267,8.16868299 37.3154203,8.10811991 37.2262156,8.02243064 C37.0677993,7.87025734 36.8776568,7.71615183 36.657838,7.57182636 C35.5254741,6.82835511 34.1447542,6.63941448 32.4617806,7.36068887 C32.0556768,7.53473337 31.5853736,7.34661212 31.4113291,6.9405083 C31.2372846,6.53440447 31.4254059,6.06410133 31.8315097,5.89005683 C34.0365046,4.945059 35.9766768,5.21055625 37.5359834,6.2343434 C38.0638976,6.58095375 38.4312218,6.9338021 38.6380069,7.19228348 Z" id="expression" fill="#000000"></path>
            </g>
        </g>
    </g>
</svg>